<?xml version="1.0" encoding="UTF-8" standalone="no"?>
<svg
   xmlns:dc="http://purl.org/dc/elements/1.1/"
   xmlns:cc="http://creativecommons.org/ns#"
   xmlns:rdf="http://www.w3.org/1999/02/22-rdf-syntax-ns#"
   xmlns:svg="http://www.w3.org/2000/svg"
   xmlns="http://www.w3.org/2000/svg"
   viewBox="0 0 1056.1 132.02499"
   height="132.02499"
   width="1056.1"
   xml:space="preserve"
   version="1.1"
   id="svg2"><metadata
     id="metadata8"><rdf:RDF><cc:Work
         rdf:about=""><dc:format>image/svg+xml</dc:format><dc:type
           rdf:resource="http://purl.org/dc/dcmitype/StillImage" /></cc:Work></rdf:RDF></metadata><defs
     id="defs6"><clipPath
       id="clipPath18"
       clipPathUnits="userSpaceOnUse"><path
         id="path20"
         d="m 0,0 8448.79,0 0,1056 L 0,1056 0,0 Z" /></clipPath></defs><g
     transform="matrix(1.25,0,0,-1.25,0,132.025)"
     id="g10"><g
       transform="scale(0.1,0.1)"
       id="g12"><g
         id="g14"><g
           clip-path="url(#clipPath18)"
           id="g16"><path
             id="path22"
             style="fill:#ffffff;fill-opacity:1;fill-rule:nonzero;stroke:none"
             d="m 268.484,350.09 c -94.351,0 -170.8356,76.48 -170.8356,170.828 0,94.352 76.4846,170.836 170.8356,170.836 94.352,0 170.829,-76.484 170.829,-170.836 0,-94.348 -76.477,-170.828 -170.829,-170.828 z m 173.852,-53.645 5.246,-13.957 c 3.566,-9.492 12.648,-15.777 22.793,-15.777 l 42,0 c 10.555,0 19.105,8.555 19.113,19.109 l 0.004,470.586 c 0,10.559 -8.554,19.114 -19.109,19.114 l -37.27,0 c -9.457,0 -18.058,-5.477 -22.058,-14.04 l -9.879,-21.136 c -6.696,-14.317 -25.016,-18.571 -37.305,-8.633 -40.437,32.715 -95.066,57.488 -149.562,57.488 -147.926,0 -256.31290625,-120.347 -256.31290625,-268.281 0,-147.93 108.38690625,-268.281 256.31290625,-268.281 53.617,0 107.527,20.429 147.695,53.933 12.859,10.735 32.437,5.547 38.332,-10.125" /><path
             id="path24"
             style="fill:#ffffff;fill-opacity:1;fill-rule:nonzero;stroke:none"
             d="m 1986.75,936.352 c 0,-34.852 -28.26,-63.11 -63.11,-63.11 -34.86,0 -63.11,28.258 -63.11,63.11 0,34.855 28.25,63.105 63.11,63.105 34.85,0 63.11,-28.25 63.11,-63.105" /><path
             id="path26"
             style="fill:#ffffff;fill-opacity:1;fill-rule:nonzero;stroke:none"
             d="m 1902.25,776 42.77,0 c 16.45,0 29.78,-13.332 29.78,-29.785 l 0,-449.418 c 0,-16.445 -13.33,-29.785 -29.78,-29.785 l -42.77,0 c -16.45,0 -29.78,13.34 -29.78,29.785 l 0,449.426 c 0,16.445 13.33,29.777 29.78,29.777" /><path
             id="path28"
             style="fill:#ffffff;fill-opacity:1;fill-rule:nonzero;stroke:none"
             d="m 7890.58,936.352 c 0,-34.852 -28.25,-63.11 -63.11,-63.11 -34.85,0 -63.1,28.258 -63.1,63.11 0,34.855 28.25,63.105 63.1,63.105 34.86,0 63.11,-28.25 63.11,-63.105" /><path
             id="path30"
             style="fill:#ffffff;fill-opacity:1;fill-rule:nonzero;stroke:none"
             d="m 7806.09,776 42.77,0 c 16.45,0 29.78,-13.332 29.78,-29.785 l 0,-449.418 c 0,-16.445 -13.33,-29.785 -29.78,-29.785 l -42.77,0 c -16.45,0 -29.78,13.34 -29.78,29.785 l 0,449.426 c 0,16.445 13.33,29.777 29.78,29.777" /><path
             id="path32"
             style="fill:#ffffff;fill-opacity:1;fill-rule:nonzero;stroke:none"
             d="m 7563.18,1056.24 42.76,0 c 16.46,0 29.79,-13.33 29.79,-29.78 l 0,-729.663 c 0,-16.445 -13.33,-29.785 -29.79,-29.785 l -42.76,0 c -16.45,0 -29.79,13.34 -29.79,29.785 l 0,729.663 c 0,16.45 13.34,29.78 29.79,29.78" /><path
             id="path34"
             style="fill:#ffffff;fill-opacity:1;fill-rule:nonzero;stroke:none"
             d="m 5798.88,520.039 c 0,94.348 76.47,170.828 170.83,170.828 94.36,0 170.83,-76.48 170.83,-170.828 0,-94.355 -76.47,-170.84 -170.83,-170.84 -94.36,0 -170.83,76.485 -170.83,170.84 z m 5.97,-243.476 c 0,19.777 22.32,31.296 38.42,19.816 38.37,-27.395 86.53,-43.711 134.45,-43.711 147.93,0 256.31,120.352 256.31,268.277 0,147.934 -108.38,268.278 -256.31,268.278 -53.5,0 -107.13,-23.879 -147.35,-55.707 -13.01,-10.309 -32.23,-5.137 -38.05,10.422 l -5.9,15.785 c -3.57,9.515 -12.66,15.82 -22.81,15.82 l -41.97,0 c -10.55,0 -19.11,-8.555 -19.11,-19.105 l 0,-737.3286 C 5702.53,8.55078 5711.1,0 5721.65,0 l 64.09,0 c 10.55,0 19.11,8.55078 19.11,19.1094 l 0,257.4536" /><path
             id="path36"
             style="fill:#ffffff;fill-opacity:1;fill-rule:nonzero;stroke:none"
             d="m 1635.54,521.832 c 0,-94.352 -76.47,-170.836 -170.83,-170.836 -94.35,0 -170.83,76.484 -170.83,170.836 0,94.352 76.48,170.836 170.83,170.836 94.36,0 170.83,-76.484 170.83,-170.836 z m -5.97,243.477 c 0,-19.782 -22.32,-31.305 -38.41,-19.817 -38.37,27.395 -86.53,43.707 -134.46,43.707 -147.92,0 -256.3,-120.347 -256.3,-268.281 0,-147.93 108.38,-268.281 256.3,-268.281 53.51,0 107.14,23.886 147.35,55.715 13.02,10.3 32.24,5.132 38.05,-10.422 l 5.91,-15.782 c 3.56,-9.519 12.65,-15.828 22.81,-15.828 l 41.96,0 c 10.55,0 19.11,8.551 19.11,19.11 l 0,737.32 c 0,10.55 -8.56,19.12 -19.11,19.12 l -64.1,0 c -10.55,0 -19.11,-8.57 -19.11,-19.12 l 0,-257.441" /><path
             id="path38"
             style="fill:#ffffff;fill-opacity:1;fill-rule:nonzero;stroke:none"
             d="m 7175.35,692.668 c 94.36,0 170.84,-76.484 170.84,-170.836 0,-94.352 -76.48,-170.836 -170.84,-170.836 -94.34,0 -170.83,76.484 -170.83,170.836 0,94.352 76.49,170.836 170.83,170.836 z M 7010.5,1022.75 c 0,10.55 -8.55,19.12 -19.11,19.12 l -64.09,0 c -10.56,0 -19.11,-8.57 -19.11,-19.12 l 0,-737.32 c 0,-10.559 8.55,-19.11 19.1,-19.11 l 41.96,0 c 10.17,0 19.26,6.309 22.81,15.828 l 5.9,15.782 c 5.82,15.554 25.04,20.722 38.07,10.422 40.2,-31.829 93.84,-55.715 147.34,-55.715 147.92,0 256.3,120.351 256.3,268.281 0,147.934 -108.38,268.281 -256.3,268.281 -47.93,0 -96.08,-16.312 -134.45,-43.707 -16.09,-11.488 -38.42,0.035 -38.42,19.817 l 0,257.441" /><path
             id="path40"
             style="fill:#ffffff;fill-opacity:1;fill-rule:nonzero;stroke:none"
             d="m 8365.44,404.973 c -34.19,-36.621 -84.28,-58.203 -139.3,-53.664 -84.07,6.933 -151.64,76.765 -156.06,161.007 -5.16,98.504 73.18,179.993 170.56,179.993 49.33,0 93.75,-20.938 124.92,-54.395 10.13,-10.859 26.6,-12.766 38.86,-4.383 l 31.23,21.364 c 14.91,10.199 17.57,31.222 5.56,44.722 -53.38,60.094 -133.34,96.047 -221.46,89.375 -132,-9.988 -238.5,-117.941 -246.84,-250.066 -9.86,-156.055 113.79,-285.692 267.73,-285.692 79.87,0 151.56,34.911 200.7,90.301 11.93,13.449 9.17,34.426 -5.68,44.578 l -31.23,21.36 c -12.32,8.429 -28.81,6.406 -38.99,-4.5" /><path
             id="path42"
             style="fill:#ffffff;fill-opacity:1;fill-rule:nonzero;stroke:none"
             d="m 3643.53,404.387 c -34.2,-36.621 -84.29,-58.215 -139.32,-53.664 -84.06,6.933 -151.64,76.765 -156.05,161.007 -5.16,98.5 73.18,179.993 170.55,179.993 49.34,0 93.76,-20.938 124.93,-54.395 10.12,-10.863 26.6,-12.765 38.85,-4.383 l 31.23,21.364 c 14.92,10.199 17.57,31.222 5.58,44.722 -53.39,60.094 -133.35,96.047 -221.46,89.375 -132.02,-9.988 -238.51,-117.945 -246.85,-250.066 -9.86,-156.055 113.79,-285.703 267.72,-285.703 79.88,0 151.57,34.922 200.71,90.304 11.94,13.457 9.17,34.43 -5.68,44.579 l -31.24,21.367 c -12.31,8.429 -28.8,6.394 -38.97,-4.5" /><path
             id="path44"
             style="fill:#ffffff;fill-opacity:1;fill-rule:nonzero;stroke:none"
             d="m 5335.51,691.746 c 84.51,0 154.5,-61.441 168.19,-142.062 l -336.39,0 c 13.69,80.621 83.68,142.062 168.2,142.062 z m 268.28,-170.801 c 0,153.832 -129.48,277.422 -285.4,267.746 -133.6,-8.289 -242.33,-117.027 -250.63,-250.625 -9.68,-155.925 113.91,-285.398 267.75,-285.398 72.71,0 158.7,13.211 229.63,90.367 12.31,13.391 9.72,34.707 -5.3,44.985 l -28.54,19.519 c -12.15,8.32 -28.52,6.504 -38.67,-4.172 -47.35,-49.754 -100.12,-52.754 -157.12,-53.219 -77.38,-0.644 -142.67,51.493 -163.65,122.059 l 401.93,0 c 16.56,0 30,13.43 30,30 l 0,18.738" /><path
             id="path46"
             style="fill:#ffffff;fill-opacity:1;fill-rule:nonzero;stroke:none"
             d="m 4042.01,691.723 c 84.52,0 154.51,-61.446 168.2,-142.067 l -336.4,0 c 13.69,80.621 83.68,142.067 168.2,142.067 z m 268.28,-170.805 c 0,153.832 -129.48,277.426 -285.39,267.75 -133.61,-8.293 -242.34,-117.027 -250.64,-250.625 -9.68,-155.926 113.92,-285.406 267.75,-285.406 72.71,0 158.71,13.215 229.63,90.371 12.32,13.398 9.72,34.719 -5.3,44.988 l -28.53,19.524 c -12.16,8.308 -28.53,6.496 -38.68,-4.168 -47.35,-49.766 -100.11,-52.766 -157.12,-53.235 -77.38,-0.633 -142.66,51.492 -163.65,122.063 l 401.93,0 c 16.57,0 30,13.433 30,30 l 0,18.738" /><path
             id="path48"
             style="fill:#ffffff;fill-opacity:1;fill-rule:nonzero;stroke:none"
             d="m 2336.8,691.723 c 84.52,0 154.51,-61.446 168.2,-142.067 l -336.4,0 c 13.69,80.621 83.69,142.067 168.2,142.067 z m 268.28,-170.805 c 0,153.832 -129.47,277.426 -285.39,267.75 -133.61,-8.293 -242.34,-117.027 -250.63,-250.625 -9.69,-155.926 113.91,-285.406 267.74,-285.406 72.7,0 158.7,13.215 229.63,90.371 12.32,13.398 9.73,34.719 -5.29,44.988 l -28.54,19.524 c -12.16,8.308 -28.53,6.496 -38.68,-4.168 -47.35,-49.766 -100.11,-52.766 -157.12,-53.235 -77.38,-0.633 -142.66,51.492 -163.65,122.063 l 401.93,0 c 16.57,0 30,13.433 30,30 l 0,18.738" /><path
             id="path50"
             style="fill:#ffffff;fill-opacity:1;fill-rule:nonzero;stroke:none"
             d="m 5025.05,788.891 c -4.3,0.222 -8.63,0.332 -12.99,0.332 -60.95,0 -117.15,-20.336 -162.2,-54.59 -9.97,-7.586 -24.29,-4.805 -30.18,6.258 l -9.95,18.664 c -5.21,9.777 -15.38,15.879 -26.46,15.879 l -24.56,0 c -16.44,0 -29.77,-13.329 -29.77,-29.774 l 0,-448.863 c 0,-16.445 13.33,-29.785 29.78,-29.785 l 42.77,0 c 16.44,0 29.78,13.34 29.78,29.785 l 0,234.332 c 0.1,94.242 76.53,170.617 170.79,170.617 6.69,0 13.28,-0.426 19.76,-1.223 11.75,-1.441 21.98,8.032 21.98,19.864 l 0,48.504 c 0,10.566 -8.2,19.461 -18.75,20" /><path
             id="path52"
             style="fill:#ffffff;fill-opacity:1;fill-rule:nonzero;stroke:none"
             d="m 1088.43,775.383 -66.07,0 c -10.01,0 -18.13,-8.117 -18.13,-18.133 l -0.15,-280.473 c 0,-63.261 -46.42,-115.539 -107.025,-125.019 -1.621,-0.266 -3.239,-0.547 -4.895,-0.742 -1.437,-0.164 -2.894,-0.293 -4.347,-0.411 -2.821,-0.234 -5.68,-0.39 -8.594,-0.429 -0.621,-0.008 -1.223,-0.098 -1.844,-0.098 -0.586,0 -1.148,0.078 -1.727,0.09 -3.011,0.035 -5.96,0.191 -8.867,0.445 -1.367,0.121 -2.73,0.227 -4.082,0.383 -2.301,0.274 -4.566,0.625 -6.797,1.035 -59.726,10.215 -105.23,62.11 -105.23,124.746 l 0.152,280.473 c 0,10.016 -8.117,18.133 -18.125,18.133 l -66.074,0 c -8.98,0 -16.387,-6.543 -17.828,-15.117 l -0.152,-283.489 0.011,-0.031 c 0,-0.125 -0.011,-0.254 -0.011,-0.379 0,-123.562 100.168,-223.73 223.726,-223.73 0.211,0 0.41,0.019 0.625,0.019 0.281,-0.008 0.563,-0.019 0.844,-0.019 0.637,0 1.375,0.09 2.023,0.097 39.86,0.657 70.867,12.344 94.504,31.993 4.656,3.64 9.098,7.55 13.141,11.906 11.738,12.644 32.512,9.441 39.852,-6.184 l 4.73,-10.058 c 4.01,-8.536 12.6,-13.993 22.04,-13.993 l 38.3,0 c 10.02,0 18.13,8.114 18.13,18.133 l 0,472.719 c 0,10.016 -8.12,18.133 -18.13,18.133" /><path
             id="path54"
             style="fill:#ffffff;fill-opacity:1;fill-rule:nonzero;stroke:none"
             d="m 6772.9,775.383 -66.07,0 c -10.01,0 -18.13,-8.117 -18.13,-18.133 l -0.15,-280.473 c 0,-63.261 -46.42,-115.539 -107.02,-125.019 -1.62,-0.266 -3.24,-0.547 -4.9,-0.742 -1.44,-0.164 -2.89,-0.293 -4.35,-0.411 -2.81,-0.234 -5.68,-0.39 -8.6,-0.429 -0.61,-0.008 -1.21,-0.098 -1.83,-0.098 -0.59,0 -1.14,0.078 -1.73,0.09 -3.01,0.035 -5.97,0.191 -8.87,0.445 -1.36,0.121 -2.72,0.227 -4.08,0.383 -2.3,0.274 -4.56,0.625 -6.8,1.035 -59.72,10.215 -105.23,62.11 -105.23,124.746 l 0.16,280.473 c 0,10.016 -8.12,18.133 -18.13,18.133 l -66.07,0 c -8.99,0 -16.39,-6.543 -17.84,-15.117 l -0.14,-283.489 0.01,-0.031 c 0,-0.125 -0.01,-0.254 -0.01,-0.379 0,-123.562 100.16,-223.73 223.72,-223.73 0.21,0 0.42,0.019 0.63,0.019 0.28,-0.008 0.56,-0.019 0.84,-0.019 0.64,0 1.38,0.09 2.03,0.097 39.86,0.657 70.86,12.344 94.5,31.993 4.66,3.64 9.1,7.55 13.14,11.906 11.74,12.644 32.52,9.441 39.86,-6.184 l 4.72,-10.058 c 4.02,-8.536 12.61,-13.993 22.04,-13.993 l 38.3,0 c 10.01,0 18.13,8.114 18.13,18.133 l 0,472.719 c 0,10.016 -8.12,18.133 -18.13,18.133" /><path
             id="path56"
             style="fill:#ffffff;fill-opacity:1;fill-rule:nonzero;stroke:none"
             d="m 2716.93,266.453 66.07,0 c 10.02,0 18.13,8.125 18.13,18.137 l 0.15,280.469 c 0,63.265 46.42,115.546 107.03,125.023 1.62,0.27 3.23,0.543 4.89,0.746 1.44,0.168 2.9,0.285 4.35,0.406 2.82,0.235 5.68,0.391 8.6,0.438 0.62,0.004 1.22,0.09 1.84,0.09 0.58,0 1.14,-0.078 1.72,-0.086 3.01,-0.039 5.97,-0.199 8.87,-0.449 1.36,-0.114 2.73,-0.227 4.08,-0.383 2.3,-0.278 4.56,-0.629 6.8,-1.035 59.72,-10.219 105.23,-62.11 105.23,-124.75 l -0.15,-280.469 c 0,-10.02 8.11,-18.137 18.12,-18.137 l 66.08,0 c 8.98,0 16.39,6.555 17.83,15.117 l 0.15,283.489 -0.02,0.035 c 0,0.125 0.02,0.254 0.02,0.379 0,123.558 -100.17,223.726 -223.73,223.726 -0.21,0 -0.41,-0.015 -0.62,-0.015 -0.29,0.007 -0.57,0.015 -0.85,0.015 -0.64,0 -1.38,-0.082 -2.02,-0.094 -39.86,-0.652 -70.87,-12.343 -94.51,-31.992 -4.65,-3.636 -9.09,-7.55 -13.14,-11.91 -11.74,-12.644 -32.52,-9.43 -39.85,6.184 l -4.73,10.058 c -4.01,8.543 -12.6,13.996 -22.04,13.996 l -38.3,0 c -10.01,0 -18.13,-8.117 -18.13,-18.125 l 0,-472.726 c 0,-10.012 8.12,-18.137 18.13,-18.137" /></g></g></g></g></svg>