<?xml version="1.0" encoding="UTF-8" standalone="no"?>
<!-- Created with Inkscape (http://www.inkscape.org/) -->

<svg
   xmlns:dc="http://purl.org/dc/elements/1.1/"
   xmlns:cc="http://creativecommons.org/ns#"
   xmlns:rdf="http://www.w3.org/1999/02/22-rdf-syntax-ns#"
   xmlns:svg="http://www.w3.org/2000/svg"
   xmlns="http://www.w3.org/2000/svg"
   xmlns:sodipodi="http://sodipodi.sourceforge.net/DTD/sodipodi-0.dtd"
   xmlns:inkscape="http://www.inkscape.org/namespaces/inkscape"
   width="357.09308mm"
   height="40.765846mm"
   viewBox="0 0 357.09308 40.765846"
   version="1.1"
   id="svg8"
   inkscape:version="0.92.0 r15299"
   sodipodi:docname="drawing.svg">
  <defs
     id="defs2">
    <style
       id="style10"
       type="text/css"><![CDATA[
    .fil0 {fill:black;fill-rule:nonzero}
   ]]></style>
  </defs>
  <sodipodi:namedview
     id="base"
     pagecolor="#ffffff"
     bordercolor="#666666"
     borderopacity="1.0"
     inkscape:pageopacity="0.0"
     inkscape:pageshadow="2"
     inkscape:zoom="0.35"
     inkscape:cx="695.97023"
     inkscape:cy="-165.81933"
     inkscape:document-units="mm"
     inkscape:current-layer="layer1"
     showgrid="false"
     showborder="false"
     inkscape:window-width="1366"
     inkscape:window-height="705"
     inkscape:window-x="-8"
     inkscape:window-y="-8"
     inkscape:window-maximized="1"
     inkscape:pagecheckerboard="false"
     fit-margin-top="0"
     fit-margin-left="0"
     fit-margin-right="0"
     fit-margin-bottom="0" />
  <metadata
     id="metadata5">
    <rdf:RDF>
      <cc:Work
         rdf:about="">
        <dc:format>image/svg+xml</dc:format>
        <dc:type
           rdf:resource="http://purl.org/dc/dcmitype/StillImage" />
        <dc:title></dc:title>
      </cc:Work>
    </rdf:RDF>
  </metadata>
  <g
     inkscape:label="Layer 1"
     inkscape:groupmode="layer"
     id="layer1"
     transform="translate(59.862016,-64.194459)">
    <g
       style="clip-rule:evenodd;fill:#9b9b9b;fill-opacity:1;fill-rule:evenodd;image-rendering:optimizeQuality;shape-rendering:geometricPrecision;text-rendering:geometricPrecision"
       id="g88"
       transform="matrix(0.02539928,0,0,0.02539928,-59.862016,64.397653)">
      <g
         id="Layer_x0020_1"
         style="fill:#9b9b9b;fill-opacity:1">
        <metadata
           id="CorelCorpID_0Corel-Layer" />
        <path
           id="path15"
           d="m 402,1396 c 0,111 -90,201 -201,201 -111,0 -201,-90 -201,-201 0,-111 90,-201 201,-201 111,0 201,90 201,201 z"
           class="fil0"
           inkscape:connector-curvature="0"
           style="fill:#9b9b9b;fill-opacity:1;fill-rule:nonzero" />
        <path
           id="path17"
           d="m 1061,1270 c -30,-37 -69,-60 -111,-70 -71,-16 -131,-64 -168,-127 l -9,-15 c -38,-65 -46,-141 -26,-213 19,-71 -2,-151 -62,-204 -75,-66 -190,-65 -264,1 -88,77 -91,212 -9,293 27,27 59,44 94,53 72,18 134,63 172,127 l 9,15 c 38,65 46,141 26,214 -18,67 -1,142 52,194 82,82 216,78 293,-10 64,-73 67,-184 5,-259 z"
           class="fil0"
           inkscape:connector-curvature="0"
           style="fill:#9b9b9b;fill-opacity:1;fill-rule:nonzero" />
        <path
           id="path19"
           d="m 1764,1270 c -30,-37 -70,-60 -112,-70 -71,-16 -131,-63 -168,-126 l -9,-16 c -37,-64 -45,-140 -26,-211 19,-68 2,-143 -51,-196 -27,-27 -61,-45 -96,-53 -71,-17 -132,-62 -169,-125 l -10,-16 C 1086,393 1077,318 1097,247 1117,175 1096,94 1035,41 997,8 950,-8 903,-8 856,-8 808,9 771,42 c -88,77 -91,212 -9,293 27,27 61,45 96,53 71,17 132,62 169,125 l 10,17 c 37,64 45,139 26,210 -19,67 -1,143 52,196 27,27 60,45 95,53 71,17 132,62 169,125 l 10,18 c 37,64 45,139 26,210 -19,68 -2,143 52,196 82,82 216,78 293,-10 64,-73 67,-184 5,-259 z"
           class="fil0"
           inkscape:connector-curvature="0"
           style="fill:#9b9b9b;fill-opacity:1;fill-rule:nonzero" />
        <path
           id="path21"
           d="m 2698,1041 c -131,0 -237,-106 -237,-237 0,-131 106,-237 237,-237 131,0 237,106 237,237 0,131 -106,237 -237,237 z m 241,75 7,19 c 5,13 18,22 32,22 h 58 c 15,0 27,-12 27,-27 V 476 c 0,-15 -12,-27 -27,-27 h -52 c -13,0 -25,8 -31,20 l -14,29 c -9,20 -35,26 -52,12 -56,-45 -132,-80 -208,-80 -205,0 -356,167 -356,373 0,205 151,373 356,373 74,0 149,-28 205,-75 18,-15 45,-8 53,14 z"
           class="fil0"
           inkscape:connector-curvature="0"
           style="fill:#9b9b9b;fill-opacity:1;fill-rule:nonzero" />
        <path
           id="path23"
           d="m 5085,227 c 0,48 -39,88 -88,88 -48,0 -88,-39 -88,-88 0,-48 39,-88 88,-88 48,0 88,39 88,88 z"
           class="fil0"
           inkscape:connector-curvature="0"
           style="fill:#9b9b9b;fill-opacity:1;fill-rule:nonzero" />
        <path
           id="path25"
           d="m 4967,450 h 59 c 23,0 41,19 41,41 v 624 c 0,23 -19,41 -41,41 h -59 c -23,0 -41,-19 -41,-41 V 491 c 0,-23 19,-41 41,-41 z"
           class="fil0"
           inkscape:connector-curvature="0"
           style="fill:#9b9b9b;fill-opacity:1;fill-rule:nonzero" />
        <path
           id="path27"
           d="m 13284,227 c 0,48 -39,88 -88,88 -48,0 -88,-39 -88,-88 0,-48 39,-88 88,-88 48,0 88,39 88,88 z"
           class="fil0"
           inkscape:connector-curvature="0"
           style="fill:#9b9b9b;fill-opacity:1;fill-rule:nonzero" />
        <path
           id="path29"
           d="m 13167,450 h 59 c 23,0 41,19 41,41 v 624 c 0,23 -19,41 -41,41 h -59 c -23,0 -41,-19 -41,-41 V 491 c 0,-23 19,-41 41,-41 z"
           class="fil0"
           inkscape:connector-curvature="0"
           style="fill:#9b9b9b;fill-opacity:1;fill-rule:nonzero" />
        <path
           id="path31"
           d="m 12830,60 h 59 c 23,0 41,19 41,41 v 1013 c 0,23 -19,41 -41,41 h -59 c -23,0 -41,-19 -41,-41 V 101 c 0,-23 19,-41 41,-41 z"
           class="fil0"
           inkscape:connector-curvature="0"
           style="fill:#9b9b9b;fill-opacity:1;fill-rule:nonzero" />
        <path
           id="path33"
           d="m 10379,805 c 0,-131 106,-237 237,-237 131,0 237,106 237,237 0,131 -106,237 -237,237 -131,0 -237,-106 -237,-237 z m 8,338 c 0,-27 31,-43 53,-28 53,38 120,61 187,61 205,0 356,-167 356,-373 0,-205 -151,-373 -356,-373 -74,0 -149,33 -205,77 -18,14 -45,7 -53,-14 l -8,-22 c -5,-13 -18,-22 -32,-22 h -58 c -15,0 -27,12 -27,27 v 1024 c 0,15 12,27 27,27 h 89 c 15,0 27,-12 27,-27 v -358 z"
           class="fil0"
           inkscape:connector-curvature="0"
           style="fill:#9b9b9b;fill-opacity:1;fill-rule:nonzero" />
        <path
           id="path35"
           d="m 4597,803 c 0,131 -106,237 -237,237 -131,0 -237,-106 -237,-237 0,-131 106,-237 237,-237 131,0 237,106 237,237 z m -8,-338 c 0,27 -31,43 -53,28 -53,-38 -120,-61 -187,-61 -205,0 -356,167 -356,373 0,205 151,373 356,373 74,0 149,-33 205,-77 18,-14 45,-7 53,14 l 8,22 c 5,13 18,22 32,22 h 58 c 15,0 27,-12 27,-27 V 108 c 0,-15 -12,-27 -27,-27 h -89 c -15,0 -27,12 -27,27 v 358 z"
           class="fil0"
           inkscape:connector-curvature="0"
           style="fill:#9b9b9b;fill-opacity:1;fill-rule:nonzero" />
        <path
           id="path37"
           d="m 12291,565 c 131,0 237,106 237,237 0,131 -106,237 -237,237 -131,0 -237,-106 -237,-237 0,-131 106,-237 237,-237 z m -229,-458 c 0,-15 -12,-27 -27,-27 h -89 c -15,0 -27,12 -27,27 v 1024 c 0,15 12,27 27,27 h 58 c 14,0 27,-9 32,-22 l 8,-22 c 8,-22 35,-29 53,-14 56,44 130,77 205,77 205,0 356,-167 356,-373 0,-205 -151,-373 -356,-373 -67,0 -133,23 -187,61 -22,16 -53,0 -53,-28 V 106 Z"
           class="fil0"
           inkscape:connector-curvature="0"
           style="fill:#9b9b9b;fill-opacity:1;fill-rule:nonzero" />
        <path
           id="path39"
           d="m 13944,965 c -48,51 -117,81 -194,75 -117,-10 -211,-107 -217,-224 -7,-137 102,-250 237,-250 69,0 130,29 174,76 14,15 37,18 54,6 l 43,-30 c 21,-14 24,-43 8,-62 -74,-83 -185,-133 -308,-124 -183,14 -331,164 -343,347 -14,217 158,397 372,397 111,0 210,-48 279,-125 7,-8 10,-17 10,-26 v -2 c 0,-13 -7,-26 -18,-33 l -43,-30 c -17,-12 -40,-9 -54,6 z"
           class="fil0"
           inkscape:connector-curvature="0"
           style="fill:#9b9b9b;fill-opacity:1;fill-rule:nonzero" />
        <path
           id="path41"
           d="m 7386,966 c -48,51 -117,81 -193,75 -117,-10 -211,-107 -217,-224 -7,-137 102,-250 237,-250 69,0 130,29 174,76 14,15 37,18 54,6 l 43,-30 c 21,-14 24,-43 8,-62 -74,-83 -185,-133 -308,-124 -183,14 -331,164 -343,347 -14,217 158,397 372,397 111,0 211,-49 279,-125 17,-19 13,-48 -8,-62 l -43,-30 c -17,-12 -40,-9 -54,6 z"
           class="fil0"
           inkscape:connector-curvature="0"
           style="fill:#9b9b9b;fill-opacity:1;fill-rule:nonzero" />
        <path
           id="path43"
           d="m 9736,567 c 117,0 215,85 234,197 h -467 c 19,-112 116,-197 234,-197 z m 373,237 c 0,-214 -180,-385 -396,-372 -186,12 -337,163 -348,348 -13,217 158,396 372,396 101,0 220,-18 319,-126 17,-19 13,-48 -7,-62 l -40,-27 c -17,-12 -40,-9 -54,6 -66,69 -139,73 -218,74 -107,1 -198,-72 -227,-170 h 558 c 23,0 42,-19 42,-42 v -26 z"
           class="fil0"
           inkscape:connector-curvature="0"
           style="fill:#9b9b9b;fill-opacity:1;fill-rule:nonzero" />
        <path
           id="path45"
           d="m 7939,567 c 117,0 215,85 234,197 h -467 c 19,-112 116,-197 234,-197 z m 373,237 c 0,-214 -180,-385 -396,-372 -186,12 -337,163 -348,348 -13,217 158,396 372,396 101,0 220,-18 319,-126 17,-19 14,-48 -7,-62 l -40,-27 c -17,-12 -40,-9 -54,6 -66,69 -139,73 -218,74 -107,1 -198,-72 -227,-170 h 558 c 23,0 42,-19 42,-42 v -26 z"
           class="fil0"
           inkscape:connector-curvature="0"
           style="fill:#9b9b9b;fill-opacity:1;fill-rule:nonzero" />
        <path
           id="path47"
           d="m 5571,567 c 117,0 215,85 234,197 h -467 c 19,-112 116,-197 234,-197 z m 373,237 c 0,-214 -180,-385 -396,-372 -186,12 -337,163 -348,348 -13,217 158,396 372,396 101,0 220,-18 319,-126 17,-19 14,-48 -7,-62 l -40,-27 c -17,-12 -40,-9 -54,6 -66,69 -139,73 -218,74 -107,1 -198,-72 -227,-170 h 558 c 23,0 42,-19 42,-42 v -26 z"
           class="fil0"
           inkscape:connector-curvature="0"
           style="fill:#9b9b9b;fill-opacity:1;fill-rule:nonzero" />
        <path
           id="path49"
           d="m 9304,432 c -6,0 -12,0 -18,0 -85,0 -163,28 -225,76 -14,11 -34,7 -42,-9 l -14,-26 c -7,-14 -21,-22 -37,-22 h -34 c -23,0 -41,19 -41,41 v 623 c 0,23 19,41 41,41 h 59 c 23,0 41,-19 41,-41 V 790 c 0,-131 106,-237 237,-237 9,0 18,1 27,2 16,2 31,-11 31,-28 v -67 c 0,-15 -11,-27 -26,-28 z"
           class="fil0"
           inkscape:connector-curvature="0"
           style="fill:#9b9b9b;fill-opacity:1;fill-rule:nonzero" />
        <path
           id="path51"
           d="m 3837,451 h -92 c -14,0 -25,11 -25,25 v 390 c 0,88 -64,160 -149,174 -2,0 -5,1 -7,1 -2,0 -4,0 -6,1 -4,0 -8,1 -12,1 -1,0 -2,0 -3,0 -1,0 -2,0 -2,0 -4,0 -8,0 -12,-1 -2,0 -4,0 -6,-1 -3,0 -6,-1 -9,-1 -83,-14 -146,-86 -146,-173 V 477 c 0,-14 -11,-25 -25,-25 h -92 c -12,0 -23,9 -25,21 v 394 0 c 0,0 0,0 0,1 0,172 139,311 311,311 0,0 1,0 1,0 0,0 1,0 1,0 1,0 2,0 3,0 55,-1 98,-17 131,-44 6,-5 13,-10 18,-17 16,-18 45,-13 55,9 l 7,14 c 6,12 18,19 31,19 h 53 c 14,0 25,-11 25,-25 V 478 c 0,-14 -11,-25 -25,-25 z"
           class="fil0"
           inkscape:connector-curvature="0"
           style="fill:#9b9b9b;fill-opacity:1;fill-rule:nonzero" />
        <path
           id="path53"
           d="m 11732,451 h -92 c -14,0 -25,11 -25,25 v 390 c 0,88 -64,160 -149,174 -2,0 -4,1 -7,1 -2,0 -4,0 -6,1 -4,0 -8,1 -12,1 -1,0 -2,0 -3,0 -1,0 -2,0 -2,0 -4,0 -8,0 -12,-1 -2,0 -4,0 -6,-1 -3,0 -6,-1 -9,-1 -83,-14 -146,-86 -146,-173 V 477 c 0,-14 -11,-25 -25,-25 h -92 c -12,0 -23,9 -25,21 v 394 0 c 0,0 0,0 0,1 0,172 139,311 311,311 0,0 1,0 1,0 0,0 1,0 1,0 1,0 2,0 3,0 55,-1 98,-17 131,-44 6,-5 13,-10 18,-17 16,-18 45,-13 55,9 l 7,14 c 6,12 18,19 31,19 h 53 c 14,0 25,-11 25,-25 V 478 c 0,-14 -11,-25 -25,-25 z"
           class="fil0"
           inkscape:connector-curvature="0"
           style="fill:#9b9b9b;fill-opacity:1;fill-rule:nonzero" />
        <path
           id="path55"
           d="m 6099,1157 h 92 c 14,0 25,-11 25,-25 V 742 c 0,-88 64,-160 149,-174 2,0 5,-1 7,-1 2,0 4,0 6,-1 4,0 8,-1 12,-1 1,0 2,0 3,0 1,0 2,0 2,0 4,0 8,0 12,1 2,0 4,0 6,1 3,0 6,1 9,1 83,14 146,86 146,173 v 390 c 0,14 11,25 25,25 h 92 c 12,0 23,-9 25,-21 v -394 0 c 0,0 0,0 0,-1 0,-172 -139,-311 -311,-311 0,0 -1,0 -1,0 0,0 -1,0 -1,0 -1,0 -2,0 -3,0 -55,1 -98,17 -131,44 -6,5 -13,10 -18,17 -16,18 -45,13 -55,-9 l -7,-14 c -6,-12 -18,-19 -31,-19 h -53 c -14,0 -25,11 -25,25 v 657 c 0,14 11,25 25,25 z"
           class="fil0"
           inkscape:connector-curvature="0"
           style="fill:#9b9b9b;fill-opacity:1;fill-rule:nonzero" />
      </g>
    </g>
  </g>
</svg>
